<svg xmlns="http://www.w3.org/2000/svg" xmlns:xlink="http://www.w3.org/1999/xlink" width="500" zoomAndPan="magnify" viewBox="0 0 375 374.999991" height="500" preserveAspectRatio="xMidYMid meet" version="1.0"><defs><clipPath id="971e0358b3"><path d="M 112.5 118 L 262 118 L 262 257 L 112.5 257 Z M 112.5 118 " clip-rule="nonzero"/></clipPath></defs><g clip-path="url(#971e0358b3)"><path fill="#000000" d="M 259.5625 152.367188 C 257 148.625 252.785156 146.382812 248.246094 146.382812 L 144.421875 146.382812 L 139.082031 122.273438 C 138.496094 119.871094 136.359375 118.105469 133.851562 118.105469 L 117.839844 118.105469 C 114.902344 118.105469 112.5 120.511719 112.5 123.449219 C 112.5 126.390625 114.902344 128.796875 117.839844 128.796875 L 129.582031 128.796875 L 134.921875 152.902344 C 134.921875 152.902344 134.921875 152.957031 134.921875 152.957031 C 134.921875 152.957031 134.921875 152.957031 134.921875 153.011719 L 149.972656 215.761719 C 150.027344 215.976562 150.078125 216.246094 150.1875 216.457031 C 152.214844 221.695312 157.339844 225.222656 162.945312 225.222656 L 227.429688 225.222656 C 233.035156 225.222656 238.160156 221.695312 240.1875 216.566406 L 261.003906 165.144531 C 262.660156 160.8125 262.125 156.058594 259.5625 152.367188 Z M 251.128906 161.082031 L 230.3125 212.503906 C 229.882812 213.679688 228.710938 214.425781 227.480469 214.425781 L 163 214.425781 C 161.878906 214.425781 160.808594 213.730469 160.277344 212.714844 L 146.929688 157.019531 L 248.246094 157.019531 C 249.6875 157.019531 250.488281 157.925781 250.757812 158.355469 C 251.023438 158.78125 251.609375 159.851562 251.128906 161.082031 Z M 176.558594 246.339844 C 176.558594 252.21875 171.804688 256.976562 165.933594 256.976562 C 160.0625 256.976562 155.3125 252.21875 155.3125 246.339844 C 155.3125 240.457031 160.0625 235.699219 165.933594 235.699219 C 171.804688 235.699219 176.558594 240.457031 176.558594 246.339844 Z M 235.277344 246.339844 C 235.277344 252.21875 230.523438 256.976562 224.652344 256.976562 C 218.78125 256.976562 214.03125 252.21875 214.03125 246.339844 C 214.03125 240.457031 218.78125 235.699219 224.652344 235.699219 C 230.523438 235.699219 235.277344 240.457031 235.277344 246.339844 Z M 235.277344 246.339844 " fill-opacity="1" fill-rule="nonzero"/></g></svg>